<svg width="64" height="85" viewBox="0 0 64 85" fill="none" xmlns="http://www.w3.org/2000/svg">
<path d="M56 31.875H53.3333V21.25C53.3333 9.53033 43.7656 0 32 0C20.2344 0 10.6667 9.53033 10.6667 21.25V31.875H8C3.59115 31.875 0 35.4482 0 39.8438V77.0312C0 81.4268 3.59115 85 8 85H56C60.4089 85 64 81.4268 64 77.0312V39.8438C64 35.4482 60.4089 31.875 56 31.875ZM17.778 21.25C17.778 13.4369 24.1563 7.08355 32 7.08355C39.8438 7.08355 46.222 13.4369 46.222 21.25V31.875H17.778V21.25Z" fill="black"/>
</svg>
